<svg width="41" height="40" viewBox="0 0 41 40" fill="none" xmlns="http://www.w3.org/2000/svg">
<g opacity="0.9" clip-path="url(#clip0_1_889)">
<path d="M9.28049 15.9902C14.1083 15.9902 18.022 19.904 18.022 24.7317C18.022 29.5594 14.1083 33.4732 9.28049 33.4732C4.4527 33.4732 0.539024 29.5594 0.539024 24.7317L0.5 23.4829C0.5 13.8274 8.32736 6 17.9829 6V10.9951C14.6474 10.9951 11.5114 12.2941 9.15272 14.6527C8.69871 15.1068 8.28435 15.5899 7.91058 16.0974C8.35694 16.0272 8.81438 15.9902 9.28049 15.9902ZM31.7585 15.9902C36.5862 15.9902 40.5 19.904 40.5 24.7317C40.5 29.5594 36.5862 33.4732 31.7585 33.4732C26.9308 33.4732 23.0171 29.5594 23.0171 24.7317L22.978 23.4829C22.978 13.8274 30.8053 6 40.461 6V10.9951C37.1255 10.9951 33.9893 12.2941 31.6308 14.6527C31.1767 15.1068 30.7623 15.5899 30.3885 16.0974C30.8349 16.0272 31.2924 15.9902 31.7585 15.9902Z" fill="#0776A0"/>
</g>
<defs>
<clipPath id="clip0_1_889">
<rect width="40" height="40" fill="white" transform="translate(0.5)"/>
</clipPath>
</defs>
</svg>
