<svg width="70" height="61" viewBox="0 0 70 61" fill="none" xmlns="http://www.w3.org/2000/svg">
<path d="M51.4983 23L37.6283 2.22667C37.0267 1.34 36.0133 0.896667 35 0.896667C33.9867 0.896667 32.9733 1.34 32.3717 2.25833L18.5017 23H3.33332C1.59166 23 0.166656 24.425 0.166656 26.1667C0.166656 26.4517 0.198323 26.7367 0.293323 27.0217L8.33666 56.3767C9.06499 59.0367 11.5033 61 14.4167 61H55.5833C58.4967 61 60.935 59.0367 61.695 56.3767L69.7383 27.0217L69.8333 26.1667C69.8333 24.425 68.4083 23 66.6667 23H51.4983ZM25.5 23L35 9.06667L44.5 23H25.5ZM35 48.3333C31.5167 48.3333 28.6667 45.4833 28.6667 42C28.6667 38.5167 31.5167 35.6667 35 35.6667C38.4833 35.6667 41.3333 38.5167 41.3333 42C41.3333 45.4833 38.4833 48.3333 35 48.3333Z" fill="white"/>
</svg>
